<svg width="81" height="81" viewBox="0 0 81 81" fill="none" xmlns="http://www.w3.org/2000/svg">
<path fill-rule="evenodd" clip-rule="evenodd" d="M40.6617 1.21144C62.2692 1.21144 79.7856 18.7282 79.7856 40.3361C79.7856 61.9432 62.2692 79.4598 40.6617 79.4598C19.054 79.4598 1.53754 61.9432 1.53754 40.3361C1.53754 18.7282 19.054 1.21144 40.6617 1.21144Z" fill="white"/>
<path fill-rule="evenodd" clip-rule="evenodd" d="M40.6617 1.21144C62.2692 1.21144 79.7856 18.7282 79.7856 40.3361C79.7856 61.9432 62.2692 79.4598 40.6617 79.4598C19.054 79.4598 1.53754 61.9432 1.53754 40.3361C1.53754 18.7282 19.054 1.21144 40.6617 1.21144Z" fill="#E74246"/>
<path d="M47 33V29H43C40.7909 29 39 30.7909 39 33V37H35V41H39V51H43V41H47V37H43V33H47Z" fill="white"/>
</svg>
